<svg width="462" height="220" viewBox="0 0 462 220" fill="none" xmlns="http://www.w3.org/2000/svg">
<g filter="url(#filter0_d_4127_31)">
<path fill-rule="evenodd" clip-rule="evenodd" d="M69.8844 87.9083H80.0809C80.5935 87.9083 81.0136 87.5116 81.063 87.0296C81.6529 81.3754 86.4492 76.9011 92.4315 76.478C92.9411 76.4427 93.7719 76.4456 94.2846 76.4456H120.847C121.359 76.4456 122.19 76.4427 122.701 76.478C128.684 76.9011 133.48 81.3754 134.071 87.0296C134.121 87.5116 134.541 87.9083 135.052 87.9083H139.382C139.895 87.9083 140.315 87.5116 140.366 87.0296C140.955 81.3754 145.75 76.9011 151.734 76.478C152.242 76.4427 153.074 76.4456 153.587 76.4456H180.148C180.66 76.4456 181.491 76.4427 182.001 76.478C187.985 76.9011 192.778 81.3754 193.371 87.0296C193.42 87.5116 193.84 87.9083 194.353 87.9083H204.548C205.061 87.9083 205.476 87.5145 205.476 87.0267V61.0464C205.476 60.5571 205.107 59.9885 204.647 59.7769C184.546 50.4301 161.989 45.1344 138.145 45.0022C137.632 44.9993 136.805 44.9993 136.292 45.0022C112.448 45.1344 89.8913 50.4331 69.7917 59.7769C69.3316 59.9885 68.961 60.5571 68.961 61.0464V87.0267C68.9579 87.5145 69.3702 87.9083 69.8844 87.9083Z" fill="#FFFDFD"/>
<path fill-rule="evenodd" clip-rule="evenodd" d="M214.365 98.4924C213.962 95.9503 211.851 93.9402 209.179 93.5582C208.673 93.4876 207.842 93.4935 207.328 93.4935H67.1035C66.5908 93.4935 65.7601 93.4876 65.2536 93.5582C62.5821 93.9402 60.4696 95.9489 60.0681 98.4924C59.9939 98.9743 60.0001 99.7649 60.0001 100.254V120.826C60.0001 121.313 60.414 121.71 60.9267 121.71H213.505C214.019 121.71 214.431 121.313 214.431 120.826V100.254C214.431 99.7649 214.439 98.9743 214.365 98.4924Z" fill="#FFFDFD"/>
<path fill-rule="evenodd" clip-rule="evenodd" d="M213.506 127.291H60.9265C60.4139 127.291 60 127.685 60 128.173V132.288C60 132.776 60.4139 133.17 60.9265 133.17H71.1199C71.6326 133.17 72.0464 133.564 72.0464 134.052V143.456C72.0464 143.943 72.4603 144.34 72.973 144.34H82.8575C83.3702 144.34 83.784 143.943 83.784 143.456V134.052C83.784 133.564 84.1979 133.17 84.7106 133.17H189.725C190.238 133.17 190.652 133.564 190.652 134.052V143.456C190.652 143.943 191.067 144.34 191.578 144.34H201.461C201.975 144.34 202.389 143.943 202.389 143.456V134.052C202.389 133.564 202.805 133.17 203.316 133.17H213.509C214.023 133.17 214.436 132.776 214.436 132.288V128.173C214.431 127.685 214.02 127.291 213.506 127.291Z" fill="#FFFDFD"/>
</g>
<path d="M247.584 96.188C247.584 97.58 247.224 98.9 246.504 100.148C245.808 101.396 244.716 102.416 243.228 103.208C241.764 103.976 239.856 104.36 237.504 104.36C236.328 104.36 235.296 104.3 234.408 104.18C233.544 104.084 232.728 103.916 231.96 103.676C231.192 103.436 230.4 103.124 229.584 102.74V96.548C230.976 97.244 232.38 97.784 233.796 98.168C235.212 98.528 236.496 98.708 237.648 98.708C238.344 98.708 238.908 98.624 239.34 98.456C239.772 98.288 240.096 98.06 240.312 97.772C240.528 97.484 240.636 97.16 240.636 96.8C240.636 96.344 240.48 95.96 240.168 95.648C239.856 95.336 239.364 95.012 238.692 94.676C238.02 94.34 237.12 93.92 235.992 93.416C235.032 92.984 234.168 92.528 233.4 92.048C232.632 91.568 231.972 91.028 231.42 90.428C230.892 89.828 230.484 89.132 230.196 88.34C229.908 87.524 229.764 86.564 229.764 85.46C229.764 83.804 230.172 82.424 230.988 81.32C231.804 80.192 232.932 79.352 234.372 78.8C235.836 78.224 237.528 77.936 239.448 77.936C241.128 77.936 242.64 78.128 243.984 78.512C245.328 78.872 246.528 79.292 247.584 79.772L245.46 85.136C244.356 84.632 243.264 84.236 242.184 83.948C241.128 83.636 240.144 83.48 239.232 83.48C238.632 83.48 238.14 83.552 237.756 83.696C237.372 83.84 237.084 84.044 236.892 84.308C236.724 84.548 236.64 84.824 236.64 85.136C236.64 85.544 236.796 85.904 237.108 86.216C237.42 86.528 237.936 86.876 238.656 87.26C239.4 87.62 240.408 88.088 241.68 88.664C242.928 89.216 243.984 89.828 244.848 90.5C245.736 91.148 246.408 91.928 246.864 92.84C247.344 93.728 247.584 94.844 247.584 96.188ZM275.453 83.732C277.733 83.732 279.473 84.308 280.673 85.46C281.873 86.612 282.473 88.472 282.473 91.04V104H275.597V93.164C275.597 91.652 275.393 90.608 274.985 90.032C274.577 89.432 273.977 89.132 273.185 89.132C272.081 89.132 271.313 89.624 270.881 90.608C270.449 91.568 270.233 92.936 270.233 94.712V104H263.357V93.164C263.357 92.204 263.273 91.436 263.105 90.86C262.937 90.26 262.685 89.828 262.349 89.564C262.013 89.276 261.581 89.132 261.053 89.132C260.261 89.132 259.637 89.372 259.181 89.852C258.749 90.332 258.449 91.028 258.281 91.94C258.113 92.852 258.029 93.968 258.029 95.288V104H251.153V84.092H256.337L257.345 86.54H257.525C257.885 85.988 258.341 85.508 258.893 85.1C259.445 84.668 260.105 84.332 260.873 84.092C261.641 83.852 262.517 83.732 263.501 83.732C264.965 83.732 266.165 83.984 267.101 84.488C268.061 84.968 268.841 85.64 269.441 86.504H269.657C270.281 85.616 271.085 84.932 272.069 84.452C273.077 83.972 274.205 83.732 275.453 83.732ZM296.873 83.732C299.393 83.732 301.361 84.356 302.777 85.604C304.193 86.852 304.901 88.628 304.901 90.932V104H300.149L298.817 101.372H298.673C298.121 102.068 297.545 102.644 296.945 103.1C296.369 103.532 295.697 103.844 294.929 104.036C294.161 104.252 293.225 104.36 292.121 104.36C290.969 104.36 289.937 104.132 289.025 103.676C288.113 103.196 287.393 102.488 286.865 101.552C286.337 100.592 286.073 99.38 286.073 97.916C286.073 95.78 286.805 94.196 288.269 93.164C289.757 92.132 291.905 91.556 294.713 91.436L298.025 91.328V91.04C298.025 90.152 297.809 89.528 297.377 89.168C296.945 88.784 296.357 88.592 295.613 88.592C294.821 88.592 293.945 88.736 292.985 89.024C292.025 89.288 291.053 89.636 290.069 90.068L288.089 85.532C289.241 84.932 290.537 84.488 291.977 84.2C293.441 83.888 295.073 83.732 296.873 83.732ZM296.477 95.18C295.229 95.228 294.341 95.456 293.813 95.864C293.309 96.248 293.057 96.8 293.057 97.52C293.057 98.192 293.237 98.696 293.597 99.032C293.957 99.344 294.437 99.5 295.037 99.5C295.877 99.5 296.585 99.236 297.161 98.708C297.761 98.18 298.061 97.496 298.061 96.656V95.108L296.477 95.18ZM321.607 83.732C321.991 83.732 322.387 83.756 322.795 83.804C323.203 83.852 323.503 83.9 323.695 83.948L323.083 90.428C322.843 90.38 322.543 90.332 322.183 90.284C321.847 90.236 321.367 90.212 320.743 90.212C320.311 90.212 319.843 90.26 319.339 90.356C318.859 90.428 318.391 90.596 317.935 90.86C317.503 91.124 317.143 91.52 316.855 92.048C316.591 92.576 316.459 93.296 316.459 94.208V104H309.583V84.092H314.695L315.775 87.26H316.099C316.459 86.612 316.927 86.024 317.503 85.496C318.079 84.944 318.715 84.512 319.411 84.2C320.131 83.888 320.863 83.732 321.607 83.732ZM336.214 98.924C336.838 98.924 337.402 98.864 337.906 98.744C338.434 98.6 338.974 98.432 339.526 98.24V103.244C338.782 103.556 337.99 103.82 337.15 104.036C336.31 104.252 335.242 104.36 333.946 104.36C332.65 104.36 331.51 104.156 330.526 103.748C329.566 103.34 328.81 102.644 328.258 101.66C327.706 100.652 327.43 99.248 327.43 97.448V89.24H325.018V86.432L328.078 84.272L329.842 80.096H334.342V84.092H339.238V89.24H334.342V96.98C334.342 97.628 334.498 98.12 334.81 98.456C335.146 98.768 335.614 98.924 336.214 98.924ZM357.813 97.88C357.813 99.128 357.525 100.244 356.949 101.228C356.397 102.212 355.497 102.98 354.249 103.532C353.025 104.084 351.405 104.36 349.389 104.36C347.973 104.36 346.701 104.276 345.573 104.108C344.469 103.964 343.341 103.676 342.189 103.244V97.736C343.461 98.312 344.745 98.732 346.041 98.996C347.337 99.236 348.357 99.356 349.101 99.356C349.869 99.356 350.433 99.272 350.793 99.104C351.153 98.936 351.333 98.684 351.333 98.348C351.333 98.06 351.213 97.808 350.973 97.592C350.733 97.376 350.301 97.136 349.677 96.872C349.077 96.608 348.213 96.248 347.085 95.792C345.981 95.336 345.057 94.844 344.313 94.316C343.593 93.764 343.053 93.116 342.693 92.372C342.333 91.604 342.153 90.68 342.153 89.6C342.153 87.656 342.897 86.192 344.385 85.208C345.897 84.224 347.889 83.732 350.361 83.732C351.681 83.732 352.917 83.876 354.069 84.164C355.221 84.452 356.421 84.872 357.669 85.424L355.797 89.852C355.149 89.54 354.477 89.276 353.781 89.06C353.109 88.844 352.473 88.676 351.873 88.556C351.297 88.436 350.805 88.376 350.397 88.376C349.869 88.376 349.449 88.448 349.137 88.592C348.849 88.736 348.705 88.94 348.705 89.204C348.705 89.444 348.801 89.66 348.993 89.852C349.209 90.044 349.605 90.26 350.181 90.5C350.757 90.74 351.597 91.088 352.701 91.544C353.853 92 354.801 92.504 355.545 93.056C356.313 93.584 356.877 94.232 357.237 95C357.621 95.744 357.813 96.704 357.813 97.88ZM388.174 96.188C388.174 97.58 387.814 98.9 387.094 100.148C386.398 101.396 385.306 102.416 383.818 103.208C382.354 103.976 380.446 104.36 378.094 104.36C376.918 104.36 375.886 104.3 374.998 104.18C374.134 104.084 373.318 103.916 372.55 103.676C371.782 103.436 370.99 103.124 370.174 102.74V96.548C371.566 97.244 372.97 97.784 374.386 98.168C375.802 98.528 377.086 98.708 378.238 98.708C378.934 98.708 379.498 98.624 379.93 98.456C380.362 98.288 380.686 98.06 380.902 97.772C381.118 97.484 381.226 97.16 381.226 96.8C381.226 96.344 381.07 95.96 380.758 95.648C380.446 95.336 379.954 95.012 379.282 94.676C378.61 94.34 377.71 93.92 376.582 93.416C375.622 92.984 374.758 92.528 373.99 92.048C373.222 91.568 372.562 91.028 372.01 90.428C371.482 89.828 371.074 89.132 370.786 88.34C370.498 87.524 370.354 86.564 370.354 85.46C370.354 83.804 370.762 82.424 371.578 81.32C372.394 80.192 373.522 79.352 374.962 78.8C376.426 78.224 378.118 77.936 380.038 77.936C381.718 77.936 383.23 78.128 384.574 78.512C385.918 78.872 387.118 79.292 388.174 79.772L386.05 85.136C384.946 84.632 383.854 84.236 382.774 83.948C381.718 83.636 380.734 83.48 379.822 83.48C379.222 83.48 378.73 83.552 378.346 83.696C377.962 83.84 377.674 84.044 377.482 84.308C377.314 84.548 377.23 84.824 377.23 85.136C377.23 85.544 377.386 85.904 377.698 86.216C378.01 86.528 378.526 86.876 379.246 87.26C379.99 87.62 380.998 88.088 382.27 88.664C383.518 89.216 384.574 89.828 385.438 90.5C386.326 91.148 386.998 91.928 387.454 92.84C387.934 93.728 388.174 94.844 388.174 96.188ZM401.499 98.924C402.123 98.924 402.687 98.864 403.191 98.744C403.719 98.6 404.259 98.432 404.811 98.24V103.244C404.067 103.556 403.275 103.82 402.435 104.036C401.595 104.252 400.527 104.36 399.231 104.36C397.935 104.36 396.795 104.156 395.811 103.748C394.851 103.34 394.095 102.644 393.543 101.66C392.991 100.652 392.715 99.248 392.715 97.448V89.24H390.303V86.432L393.363 84.272L395.127 80.096H399.627V84.092H404.523V89.24H399.627V96.98C399.627 97.628 399.783 98.12 400.095 98.456C400.431 98.768 400.899 98.924 401.499 98.924ZM418.022 83.732C420.542 83.732 422.51 84.356 423.926 85.604C425.342 86.852 426.05 88.628 426.05 90.932V104H421.298L419.966 101.372H419.822C419.27 102.068 418.694 102.644 418.094 103.1C417.518 103.532 416.846 103.844 416.078 104.036C415.31 104.252 414.374 104.36 413.27 104.36C412.118 104.36 411.086 104.132 410.174 103.676C409.262 103.196 408.542 102.488 408.014 101.552C407.486 100.592 407.222 99.38 407.222 97.916C407.222 95.78 407.954 94.196 409.418 93.164C410.906 92.132 413.054 91.556 415.862 91.436L419.174 91.328V91.04C419.174 90.152 418.958 89.528 418.526 89.168C418.094 88.784 417.506 88.592 416.762 88.592C415.97 88.592 415.094 88.736 414.134 89.024C413.174 89.288 412.202 89.636 411.218 90.068L409.238 85.532C410.39 84.932 411.686 84.488 413.126 84.2C414.59 83.888 416.222 83.732 418.022 83.732ZM417.626 95.18C416.378 95.228 415.49 95.456 414.962 95.864C414.458 96.248 414.206 96.8 414.206 97.52C414.206 98.192 414.386 98.696 414.746 99.032C415.106 99.344 415.586 99.5 416.186 99.5C417.026 99.5 417.734 99.236 418.31 98.708C418.91 98.18 419.21 97.496 419.21 96.656V95.108L417.626 95.18ZM428.319 84.092H435.555L438.939 95.504C438.987 95.672 439.035 95.876 439.083 96.116C439.131 96.356 439.167 96.608 439.191 96.872C439.239 97.136 439.263 97.4 439.263 97.664H439.407C439.455 97.184 439.515 96.776 439.587 96.44C439.683 96.08 439.767 95.78 439.839 95.54L443.295 84.092H450.315L442.431 105.26C441.831 106.868 441.123 108.224 440.307 109.328C439.515 110.432 438.531 111.26 437.355 111.812C436.179 112.364 434.715 112.64 432.963 112.64C432.339 112.64 431.799 112.604 431.343 112.532C430.887 112.484 430.491 112.424 430.155 112.352V106.952C430.419 107 430.731 107.048 431.091 107.096C431.475 107.144 431.871 107.168 432.279 107.168C433.047 107.168 433.659 107.012 434.115 106.7C434.595 106.388 434.991 105.98 435.303 105.476C435.615 104.996 435.879 104.468 436.095 103.892L436.167 103.712L428.319 84.092Z" fill="white"/>
<defs>
<filter id="filter0_d_4127_31" x="0" y="0" width="274.436" height="219.34" filterUnits="userSpaceOnUse" color-interpolation-filters="sRGB">
<feFlood flood-opacity="0" result="BackgroundImageFix"/>
<feColorMatrix in="SourceAlpha" type="matrix" values="0 0 0 0 0 0 0 0 0 0 0 0 0 0 0 0 0 0 127 0" result="hardAlpha"/>
<feOffset dy="15"/>
<feGaussianBlur stdDeviation="30"/>
<feComposite in2="hardAlpha" operator="out"/>
<feColorMatrix type="matrix" values="0 0 0 0 0.0846153 0 0 0 0 0.0846153 0 0 0 0 0.0846153 0 0 0 0.25 0"/>
<feBlend mode="normal" in2="BackgroundImageFix" result="effect1_dropShadow_4127_31"/>
<feBlend mode="normal" in="SourceGraphic" in2="effect1_dropShadow_4127_31" result="shape"/>
</filter>
</defs>
</svg>
