<svg width="267" height="222" viewBox="0 0 267 222" fill="none" xmlns="http://www.w3.org/2000/svg">
<circle cx="133" cy="107" r="107" fill="#232323"/>
<g filter="url(#filter0_dd_4119_182)">
<path fill-rule="evenodd" clip-rule="evenodd" d="M65.8844 93.9083H76.0809C76.5935 93.9083 77.0136 93.5116 77.063 93.0296C77.6529 87.3754 82.4492 82.9011 88.4315 82.478C88.9411 82.4427 89.7719 82.4456 90.2846 82.4456H116.847C117.359 82.4456 118.19 82.4427 118.701 82.478C124.684 82.9011 129.48 87.3754 130.071 93.0296C130.121 93.5116 130.541 93.9083 131.052 93.9083H135.382C135.895 93.9083 136.315 93.5116 136.366 93.0296C136.955 87.3754 141.75 82.9011 147.734 82.478C148.242 82.4427 149.074 82.4456 149.587 82.4456H176.148C176.66 82.4456 177.491 82.4427 178.001 82.478C183.985 82.9011 188.778 87.3754 189.371 93.0296C189.42 93.5116 189.84 93.9083 190.353 93.9083H200.548C201.061 93.9083 201.476 93.5145 201.476 93.0267V67.0464C201.476 66.5571 201.107 65.9885 200.647 65.7769C180.546 56.4301 157.989 51.1344 134.145 51.0022C133.632 50.9993 132.805 50.9993 132.292 51.0022C108.448 51.1344 85.8913 56.4331 65.7917 65.7769C65.3316 65.9885 64.961 66.5571 64.961 67.0464V93.0267C64.9579 93.5145 65.3702 93.9083 65.8844 93.9083Z" fill="#E0E0E0"/>
<path fill-rule="evenodd" clip-rule="evenodd" d="M210.365 104.492C209.962 101.95 207.851 99.9402 205.179 99.5582C204.673 99.4876 203.842 99.4935 203.328 99.4935H63.1035C62.5908 99.4935 61.7601 99.4876 61.2536 99.5582C58.5821 99.9402 56.4696 101.949 56.0681 104.492C55.9939 104.974 56.0001 105.765 56.0001 106.254V126.826C56.0001 127.313 56.414 127.71 56.9267 127.71H209.505C210.019 127.71 210.431 127.313 210.431 126.826V106.254C210.431 105.765 210.439 104.974 210.365 104.492Z" fill="#E0E0E0"/>
<path fill-rule="evenodd" clip-rule="evenodd" d="M209.506 133.291H56.9265C56.4139 133.291 56 133.685 56 134.173V138.288C56 138.776 56.4139 139.17 56.9265 139.17H67.1199C67.6326 139.17 68.0464 139.564 68.0464 140.052V149.456C68.0464 149.943 68.4603 150.34 68.973 150.34H78.8575C79.3702 150.34 79.784 149.943 79.784 149.456V140.052C79.784 139.564 80.1979 139.17 80.7106 139.17H185.725C186.238 139.17 186.652 139.564 186.652 140.052V149.456C186.652 149.943 187.067 150.34 187.578 150.34H197.461C197.975 150.34 198.389 149.943 198.389 149.456V140.052C198.389 139.564 198.805 139.17 199.316 139.17H209.509C210.023 139.17 210.436 138.776 210.436 138.288V134.173C210.431 133.685 210.02 133.291 209.506 133.291Z" fill="#E0E0E0"/>
</g>
<defs>
<filter id="filter0_dd_4119_182" x="0" y="10" width="266.436" height="211.34" filterUnits="userSpaceOnUse" color-interpolation-filters="sRGB">
<feFlood flood-opacity="0" result="BackgroundImageFix"/>
<feColorMatrix in="SourceAlpha" type="matrix" values="0 0 0 0 0 0 0 0 0 0 0 0 0 0 0 0 0 0 127 0" result="hardAlpha"/>
<feOffset dy="15"/>
<feGaussianBlur stdDeviation="28"/>
<feComposite in2="hardAlpha" operator="out"/>
<feColorMatrix type="matrix" values="0 0 0 0 0.0846153 0 0 0 0 0.0846153 0 0 0 0 0.0846153 0 0 0 0.25 0"/>
<feBlend mode="normal" in2="BackgroundImageFix" result="effect1_dropShadow_4119_182"/>
<feColorMatrix in="SourceAlpha" type="matrix" values="0 0 0 0 0 0 0 0 0 0 0 0 0 0 0 0 0 0 127 0" result="hardAlpha"/>
<feOffset dy="-22"/>
<feGaussianBlur stdDeviation="3.5"/>
<feComposite in2="hardAlpha" operator="out"/>
<feColorMatrix type="matrix" values="0 0 0 0 0 0 0 0 0 0 0 0 0 0 0 0 0 0 0.25 0"/>
<feBlend mode="normal" in2="effect1_dropShadow_4119_182" result="effect2_dropShadow_4119_182"/>
<feBlend mode="normal" in="SourceGraphic" in2="effect2_dropShadow_4119_182" result="shape"/>
</filter>
</defs>
</svg>
